<?xml version="1.0" encoding="UTF-8"?>
<svg width="240px" height="54px" viewBox="0 0 240 54" version="1.1" xmlns="http://www.w3.org/2000/svg" xmlns:xlink="http://www.w3.org/1999/xlink">
    <!-- Generator: Sketch 48.2 (47327) - http://www.bohemiancoding.com/sketch -->
    <title>Logo / Full / Blue</title>
    <desc>Created with Sketch.</desc>
    <defs>
        <polygon id="path-1" points="0 0.492075 20.1143318 0.492075 20.1143318 25.629075 0 25.629075"></polygon>
        <polygon id="path-3" points="0.22214218 0.0855 19.7184455 0.0855 19.7184455 18.7767562 0.22214218 18.7767562"></polygon>
    </defs>
    <g id="Symbols" stroke="none" stroke-width="1" fill="none" fill-rule="evenodd">
        <g id="&gt;&gt;&gt;&gt;-Logos-&lt;&lt;&lt;&lt;" transform="translate(-1046.000000, -149.000000)"></g>
        <g id="Logo-/-Full-/-Blue">
            <g id="Page-1">
                <g id="Group-3" transform="translate(0.000000, 0.476831)">
                    <mask id="mask-2" fill="white">
                        <use xlink:href="#path-1"></use>
                    </mask>
                    <g id="Clip-2"></g>
                    <path d="M6.33480569,15.355575 L10.8043791,15.355575 C12.6675071,15.355575 13.7003033,16.2972 13.7003033,17.8108875 C13.7003033,19.241325 12.6675071,20.226825 10.8043791,20.226825 L6.33480569,20.226825 L6.33480569,15.355575 Z M6.33480569,5.9016375 L10.1412512,5.9016375 C12.0862749,5.9016375 13.1207773,6.594075 13.1207773,8.1505125 C13.1207773,9.7063875 12.0862749,10.441575 10.1412512,10.441575 L6.33480569,10.441575 L6.33480569,5.9016375 Z M19.8407773,20.7268875 C20.0176493,20.0721375 20.1143318,19.3622625 20.1143318,18.586575 C20.1143318,15.7633875 18.3757536,13.4307 15.9785972,12.6516375 C17.8383128,12.0002625 19.3710142,10.0326375 19.3710142,7.329825 C19.3710142,2.8281375 16.1827678,0.492075 10.887981,0.492075 L-0.000170616114,0.492075 L-0.000170616114,25.629075 L2.98561137,25.629075 C8.56532701,23.8712625 14.1825782,22.2321375 19.8407773,20.7268875 Z" id="Fill-1" fill="#00A2E7" mask="url(#mask-2)"></path>
                </g>
                <path d="M22.2234313,24.3743063 L22.2234313,26.1056813 L40.3912038,26.1056813 L40.3912038,20.4171188 L38.9949953,20.4171188 C33.3703507,21.6191813 27.7730047,22.9309313 22.2234313,24.3743063" id="Fill-4" fill="#00A2E7"></path>
                <path d="M28.7614976,18.9272813 L28.7614976,16.0776562 L39.3982749,16.0776562 L39.3982749,10.5510937 L28.7614976,10.5510937 L28.7614976,6.62259375 L40.3912607,6.62259375 L40.3912607,0.96890625 L22.2234882,0.96890625 L22.2234882,20.5686562 C24.3994123,20.0016562 26.5764739,19.4543437 28.7614976,18.9272813" id="Fill-6" fill="#00A2E7"></path>
                <path d="M49.2898578,14.5338188 L49.2898578,11.4102563 L51.2724171,14.1546937 C53.3920379,13.7682563 55.5179147,13.4031937 57.6432227,13.0493813 L49.08,0.96913125 L42.8741232,0.96913125 L42.8741232,15.7876313 C45.0079621,15.3522563 47.1469194,14.9371313 49.2898578,14.5338188" id="Fill-8" fill="#00A2E7"></path>
                <path d="M65.304,11.841075 L65.304,0.969075 L58.8905403,0.969075 L58.8905403,12.833325 C61.026654,12.4840125 63.1644739,12.160575 65.304,11.841075" id="Fill-10" fill="#00A2E7"></path>
                <path d="M53.7274123,17.5474125 L59.925327,26.10585 L65.3037156,26.10585 L65.3037156,15.68835 C61.4364171,16.25985 57.5765118,16.870725 53.7274123,17.5474125" id="Fill-12" fill="#00A2E7"></path>
                <path d="M42.8739526,19.6095375 L42.8739526,26.10585 L49.2896872,26.10585 L49.2896872,18.360225 C47.1461801,18.7624125 45.0077915,19.17585 42.8739526,19.6095375" id="Fill-14" fill="#00A2E7"></path>
                <path d="M74.8211943,10.5315188 L74.8211943,6.62270625 L77.5516209,6.62270625 C80.2297251,6.62270625 82.1537062,7.69483125 83.2052701,9.56345625 C85.4744645,9.32495625 87.7442275,9.11401875 90.0134218,8.90983125 C88.4107678,3.96714375 84.1095355,0.96901875 77.8837536,0.96901875 L68.28091,0.96901875 L68.28091,11.3972063 C70.4568341,11.0917687 72.6395829,10.8060188 74.8211943,10.5315188" id="Fill-16" fill="#00A2E7"></path>
                <path d="M84.1228436,13.3462125 C84.1251185,13.41315 84.1330806,13.472775 84.1330806,13.5385875 C84.1330806,17.7573375 81.7734597,20.4168375 77.5512796,20.4168375 L74.8214218,20.4168375 L74.8214218,14.39415 C72.6398104,14.6658375 70.4570616,14.9482125 68.2811374,15.2514 L68.2811374,26.1059625 L77.8834123,26.1059625 C85.8688152,26.1059625 90.7131754,21.192525 90.7131754,13.5385875 C90.7131754,13.2629625 90.6944076,12.99915 90.6807583,12.7330875 C88.4940284,12.9198375 86.3090047,13.126275 84.1228436,13.3462125" id="Fill-18" fill="#00A2E7"></path>
                <path d="M103.123905,7.94975625 C105.348739,7.81813125 107.569024,7.70563125 109.787602,7.60944375 L109.787602,6.62281875 L117.653005,6.62281875 L117.653005,0.96913125 L95.3028626,0.96913125 L95.3028626,6.62281875 L103.123905,6.62281875 L103.123905,7.94975625 Z" id="Fill-20" fill="#00A2E7"></path>
                <path d="M103.123905,11.8521 L103.123905,26.10585 L109.787602,26.10585 L109.787602,11.520225 C107.567886,11.612475 105.348739,11.7255375 103.123905,11.8521" id="Fill-22" fill="#00A2E7"></path>
                <path d="M119.758976,11.2115813 L119.758976,26.1060188 L126.424948,26.1060188 L126.424948,16.1565188 L136.231962,16.1565188 L136.231962,26.1060188 L142.896796,26.1060188 L142.896796,11.3640188 C135.208834,11.1137063 127.491299,11.0608313 119.758976,11.2115813" id="Fill-24" fill="#00A2E7"></path>
                <path d="M142.896569,7.43776875 L142.896569,0.96901875 L136.231735,0.96901875 L136.231735,7.26845625 C138.454294,7.30614375 140.677422,7.36295625 142.896569,7.43776875" id="Fill-26" fill="#00A2E7"></path>
                <path d="M126.424777,7.21035 L126.424777,0.96885 L119.758806,0.96885 L119.758806,7.292475 C121.982502,7.2486 124.20563,7.2221625 126.424777,7.21035" id="Fill-28" fill="#00A2E7"></path>
                <path d="M151.953896,7.8233625 L151.953896,6.622425 L163.587071,6.622425 L163.587071,0.9687375 L145.415886,0.9687375 L145.415886,7.5168 C147.602047,7.6006125 149.777972,7.7058 151.953896,7.8233625" id="Fill-30" fill="#00A2E7"></path>
                <path d="M151.953896,16.0774312 L162.594085,16.0774312 L162.594085,12.4453688 C156.892664,12.0038062 151.163943,11.6606812 145.415886,11.4390563 L145.415886,26.1056812 L163.587071,26.1056812 L163.587071,20.4171188 L151.953896,20.4171188 L151.953896,16.0774312 Z" id="Fill-32" fill="#00A2E7"></path>
                <path d="M182.574825,10.5589688 L183.241365,8.74940625 L183.971033,10.7249063 C186.266957,11.0213438 188.556626,11.3436563 190.842313,11.6738438 L186.716815,0.96890625 L179.929137,0.96890625 L176.516815,9.83278125 C178.542597,10.0566563 180.562123,10.3075313 182.574825,10.5589688" id="Fill-34" fill="#00A2E7"></path>
                <path d="M185.480588,14.8293562 L185.847412,15.8322937 L180.63509,15.8322937 L181.202104,14.2932937 C179.162673,14.0457937 177.116417,13.8089812 175.066749,13.5901687 L170.245137,26.1057937 L176.82637,26.1057937 L178.605896,21.2345438 L187.836796,21.2345438 L189.656133,26.1057937 L196.400588,26.1057937 L192.428645,15.7940438 C190.122483,15.4554187 187.806654,15.1336687 185.480588,14.8293562" id="Fill-36" fill="#00A2E7"></path>
                <path d="M204.345043,6.49845 L208.487033,6.49845 C210.843242,6.49845 211.919261,7.6858875 211.919261,9.5297625 C211.919261,11.3697 210.843242,12.556575 208.487033,12.556575 L204.345043,12.556575 L204.345043,6.49845 Z M215.401536,16.01145 C217.294806,14.6142 218.41746,12.414825 218.41746,9.5297625 C218.41746,4.0431375 214.651962,0.969075 209.187128,0.969075 L197.767223,0.969075 L197.767223,12.7472625 C203.694995,13.713075 209.576701,14.797575 215.401536,16.01145 Z" id="Fill-38" fill="#00A2E7"></path>
                <path d="M206.914237,18.1922625 L211.959355,26.1055125 L219.327128,26.1055125 L215.154995,19.80045 C212.422863,19.2402 209.676512,18.6996375 206.914237,18.1922625" id="Fill-40" fill="#00A2E7"></path>
                <path d="M197.766995,16.6201312 L197.766995,26.1055687 L204.344815,26.1055687 L204.344815,17.7968812 L204.695147,17.7968812 C202.392398,17.3879437 200.082825,16.9913812 197.766995,16.6201312" id="Fill-42" fill="#00A2E7"></path>
                <path d="M234.197289,20.4060375 C236.07691,20.893725 237.947431,21.3971625 239.813403,21.9135375 L239.813403,18.4086 C238.080512,19.734975 236.194635,20.346975 234.197289,20.4060375" id="Fill-44" fill="#00A2E7"></path>
                <path d="M222.642938,21.4146 C224.90872,24.6247875 228.683318,26.516475 233.355355,26.516475 C235.490332,26.516475 237.280664,26.0991 238.740569,25.393725 C233.437251,23.9632875 228.072512,22.6341 222.642938,21.4146" id="Fill-46" fill="#00A2E7"></path>
                <g id="Group-50" transform="translate(220.094787, 0.476831)">
                    <mask id="mask-4" fill="white">
                        <use xlink:href="#path-3"></use>
                    </mask>
                    <g id="Clip-49"></g>
                    <path d="M9.58384834,18.7767562 C7.87541232,17.6264437 6.8869763,15.6621937 6.8869763,13.0617563 C6.8869763,8.72319375 9.5770237,6.14581875 13.7957915,6.14581875 C15.9085877,6.14581875 17.8945592,6.79944375 19.7184455,8.19050625 L19.7184455,1.80388125 C18.1015735,0.74244375 15.9483981,0.08544375 13.2606256,0.08544375 C5.52034123,0.08544375 0.22214218,5.24356875 0.22214218,13.0617563 C0.22214218,14.3481937 0.381952607,15.5541937 0.652094787,16.6859437 C3.64470142,17.3496937 6.62365877,18.0460687 9.58384834,18.7767562" id="Fill-48" fill="#00A2E7" mask="url(#mask-4)"></path>
                </g>
                <path d="M100.141479,34.5861 C98.9938009,34.5861 98.0190142,33.7620375 98.0190142,32.568975 C98.0190142,31.398975 98.9938009,30.548475 100.141479,30.548475 C101.264701,30.548475 102.2429,31.398975 102.2429,32.568975 C102.2429,33.7620375 101.264701,34.5861 100.141479,34.5861 Z M101.926692,49.4541 C101.926692,52.2705375 100.403659,53.9141625 97.4411943,53.9141625 C96.982237,53.9141625 96.4061232,53.8871625 96.0626161,53.7746625 L96.0626161,50.9610375 C96.2628057,50.989725 96.5790142,51.0471 96.8389194,51.0471 C97.8711469,51.0471 98.3642275,50.5611 98.3642275,49.4254125 L98.3642275,36.234225 L101.926692,36.234225 L101.926692,49.4541 Z" id="Fill-51" fill="#B2292E"></path>
                <path d="M107.385953,41.0954625 L112.243393,41.0954625 C112.156948,39.7308375 111.384626,38.7639 109.974199,38.7639 C108.794673,38.7639 107.792588,39.5035875 107.385953,41.0954625 Z M107.27164,43.3983375 C107.558275,45.472275 109.081877,46.32615 110.977991,46.32615 C112.386711,46.32615 113.391071,46.0128375 114.657043,45.2185875 L114.657043,48.1154625 C113.592967,48.8838375 112.156948,49.2264 110.433725,49.2264 C106.52491,49.2264 103.850218,46.7249625 103.850218,42.6873375 C103.850218,38.7070875 106.379318,35.9508375 109.887185,35.9508375 C113.623109,35.9508375 115.549934,38.5090875 115.549934,42.2587125 L115.549934,43.3983375 L107.27164,43.3983375 Z" id="Fill-53" fill="#B2292E"></path>
                <polygon id="Fill-55" fill="#B2292E" points="129.084 44.33535 131.383336 36.234225 134.832057 36.234225 130.920398 48.9416625 127.647981 48.9416625 125.548265 41.1516 123.449118 48.9416625 120.175564 48.9416625 116.263336 36.234225 119.828076 36.234225 122.129118 44.33535 124.225422 36.234225 126.958123 36.234225"></polygon>
                <path d="M136.438294,48.9418312 L140.004171,48.9418312 L140.004171,36.2338313 L136.438294,36.2338313 L136.438294,48.9418312 Z M138.221232,34.5862688 C137.071848,34.5862688 136.095355,33.7622062 136.095355,32.5691438 C136.095355,31.3991438 137.071848,30.5486438 138.221232,30.5486438 C139.341043,30.5486438 140.317536,31.3991438 140.317536,32.5691438 C140.317536,33.7622062 139.341043,34.5862688 138.221232,34.5862688 Z" id="Fill-57" fill="#B2292E"></path>
                <path d="M142.246749,44.6770125 C143.479735,45.7857 145.262673,46.439325 146.66855,46.439325 C147.732057,46.439325 148.564664,46.1248875 148.564664,45.36045 C148.564664,44.650575 147.991962,44.3890125 147.101915,44.1077625 L145.865517,43.76745 C143.626464,43.1683875 142.216607,42.119325 142.216607,39.92895 C142.216607,37.4567625 144.369213,35.9503875 147.245232,35.9503875 C148.881441,35.9503875 150.204284,36.34695 151.354237,37.0877625 L151.354237,40.3002 C150.204284,39.3906375 148.881441,38.735325 147.418692,38.735325 C146.438787,38.735325 145.692626,39.1048875 145.692626,39.8142 C145.692626,40.4987625 146.185706,40.726575 147.075185,41.0095125 L148.511773,41.4358875 C150.951014,42.119325 152.073668,43.255575 152.073668,45.3042 C152.073668,47.8607625 149.804474,49.2265125 146.782294,49.2265125 C145.089213,49.2265125 143.339829,48.77145 142.246749,47.9485125 L142.246749,44.6770125 Z" id="Fill-59" fill="#B2292E"></path>
                <path d="M154.139886,30.4651125 L157.702351,30.4651125 L157.702351,37.4007375 C158.398464,36.6064875 159.661592,35.9506125 161.154483,35.9506125 C164.05382,35.9506125 165.696284,37.8237375 165.696284,40.6407375 L165.696284,48.9421125 L162.130976,48.9421125 L162.130976,41.3821125 C162.130976,40.04055 161.441118,39.1343625 160.034673,39.1343625 C158.938749,39.1343625 157.991829,39.7868625 157.702351,40.8978 L157.702351,48.9421125 L154.139886,48.9421125 L154.139886,30.4651125 Z" id="Fill-60" fill="#B2292E"></path>
                <path d="M181.181915,44.5627688 C180.86855,43.8838313 179.915374,43.4552063 178.91272,43.4552063 C177.79291,43.4552063 176.643526,43.9412063 176.643526,45.0195188 C176.643526,46.1248312 177.79291,46.5821438 178.91272,46.5821438 C179.915374,46.5821438 180.86855,46.1557688 181.181915,45.4723313 L181.181915,44.5627688 Z M181.181915,41.0100188 C181.181915,39.7871438 180.118976,39.0221438 178.309308,39.0221438 C177.016607,39.0221438 175.810351,39.3905813 174.800303,40.0408313 L174.800303,36.9999563 C175.723336,36.4318313 177.389687,35.9503313 179.085611,35.9503313 C182.617934,35.9503313 184.604474,37.7447063 184.604474,40.8407063 L184.604474,48.9418313 L181.181915,48.9418313 L181.181915,48.2583938 C180.74855,48.6847688 179.488834,49.1735813 178.079545,49.1735813 C175.493573,49.1735813 173.340967,47.6908313 173.340967,45.0482063 C173.340967,42.6333938 175.493573,40.9813313 178.309308,40.9813313 C179.432531,40.9813313 180.668929,41.3525813 181.181915,41.7215812 L181.181915,41.0100188 Z" id="Fill-61" fill="#B2292E"></path>
                <path d="M192.93509,35.9506125 C194.231204,35.9506125 195.497744,36.2341125 196.417365,36.9462375 L196.417365,40.1592375 C195.554047,39.3903 194.517839,39.022425 193.365043,39.022425 C191.472341,39.022425 189.976038,40.32855 189.976038,42.6016125 C189.976038,44.8482375 191.472341,46.184175 193.365043,46.184175 C194.517839,46.184175 195.554047,45.7853625 196.417365,45.0484875 L196.417365,48.2311125 C195.497744,48.9421125 194.231204,49.2267375 192.93509,49.2267375 C189.289592,49.2267375 186.443716,46.66905 186.443716,42.6016125 C186.443716,38.509425 189.289592,35.9506125 192.93509,35.9506125" id="Fill-62" fill="#B2292E"></path>
                <polygon id="Fill-63" fill="#B2292E" points="203.628569 48.9419438 200.062692 48.9419438 200.062692 39.0785063 197.620607 39.0785063 197.620607 36.2339438 200.062692 36.2339438 200.062692 32.7931313 203.628569 32.7931313 203.628569 36.2339438 206.357858 36.2339438 206.357858 39.0785063 203.628569 39.0785063"></polygon>
                <path d="M208.193744,48.9418312 L211.759621,48.9418312 L211.759621,36.2338313 L208.193744,36.2338313 L208.193744,48.9418312 Z M209.976682,34.5862688 C208.830142,34.5862688 207.847393,33.7622062 207.847393,32.5691438 C207.847393,31.3991438 208.830142,30.5486438 209.976682,30.5486438 C211.099905,30.5486438 212.075829,31.3991438 212.075829,32.5691438 C212.075829,33.7622062 211.099905,34.5862688 209.976682,34.5862688 Z" id="Fill-64" fill="#B2292E"></path>
                <path d="M220.037062,38.9366438 C218.254123,38.9366438 217.27763,40.4694563 217.27763,42.6018938 C217.27763,44.7045188 218.254123,46.2435187 220.037062,46.2435187 C221.816588,46.2435187 222.793081,44.7045188 222.793081,42.6018938 C222.793081,40.4694563 221.816588,38.9366438 220.037062,38.9366438 M220.037062,49.2264562 C216.298294,49.2264562 213.742464,46.4983312 213.742464,42.6018938 C213.742464,38.6784563 216.298294,35.9503313 220.037062,35.9503313 C223.772417,35.9503313 226.328815,38.6784563 226.328815,42.6018938 C226.328815,46.4983312 223.772417,49.2264562 220.037062,49.2264562" id="Fill-65" fill="#B2292E"></path>
                <path d="M228.283507,36.2340563 L231.844834,36.2340563 L231.844834,37.4006812 C232.535829,36.6064312 233.801801,35.9505562 235.290142,35.9505562 C238.196303,35.9505562 239.835355,37.8236812 239.835355,40.6406813 L239.835355,48.9420563 L236.274597,48.9420563 L236.274597,41.3820562 C236.274597,40.0410562 235.583602,39.1343063 234.1709,39.1343063 C233.08237,39.1343063 232.131469,39.7868062 231.844834,40.8977438 L231.844834,48.9420563 L228.283507,48.9420563 L228.283507,36.2340563 Z" id="Fill-66" fill="#B2292E"></path>
            </g>
        </g>
    </g>
</svg>